<?xml version="1.0" encoding="utf-8"?>
<!-- Generator: Adobe Illustrator 15.0.2, SVG Export Plug-In  -->
<!DOCTYPE svg PUBLIC "-//W3C//DTD SVG 1.1//EN" "http://www.w3.org/Graphics/SVG/1.1/DTD/svg11.dtd" [
	<!ENTITY ns_flows "http://ns.adobe.com/Flows/1.0/">
]>
<svg version="1.1"
	 xmlns="http://www.w3.org/2000/svg" xmlns:xlink="http://www.w3.org/1999/xlink" xmlns:a="http://ns.adobe.com/AdobeSVGViewerExtensions/3.0/"
	 x="0px" y="0px" width="424px" height="90px" viewBox="0 0 424 90" overflow="visible" enable-background="new 0 0 424 90"
	 xml:space="preserve">
<defs>
</defs>
<path fill="#1AA0B3" d="M4.893,43.611c0,1.088-1.148,1.971-2.443,1.971C1.155,45.582,0,44.699,0,43.611V22.539
	c0-1.09,1.155-1.971,2.449-1.971c1.295,0,2.443,0.881,2.443,1.971V43.611z"/>
<path fill="#1AA0B3" d="M41.692,70.021c0,1.087-1.032,1.971-2.327,1.971c-1.294,0-2.332-0.884-2.332-1.971V48.953
	c0-1.091,1.038-1.975,2.332-1.975c1.295,0,2.327,0.884,2.327,1.975V70.021z"/>
<path fill="#1AA0B3" d="M29.35,25.378c0,1.087-1.033,1.971-2.326,1.971c-1.3,0-2.335-0.884-2.335-1.971V1.975
	c0-1.09,1.035-1.975,2.335-1.975c1.293,0,2.326,0.885,2.326,1.975V25.378z"/>
<path fill="#1AA0B3" d="M29.35,79.838c0,1.088-1.033,1.972-2.326,1.972c-1.3,0-2.335-0.884-2.335-1.972V39.137
	c0-1.088,1.035-1.975,2.335-1.975c1.293,0,2.326,0.887,2.326,1.975V79.838z"/>
<path fill="#1AA0B3" d="M17.008,88.251c0,1.091-1.032,1.976-2.335,1.976c-1.295,0-2.327-0.885-2.327-1.976V69.526
	c0-1.093,1.032-1.971,2.327-1.971c1.303,0,2.335,0.878,2.335,1.971V88.251z"/>
<path fill="#1AA0B3" d="M17.008,51.555c0,1.092-1.032,1.976-2.335,1.976c-1.295,0-2.327-0.884-2.327-1.976V13.429
	c0-1.096,1.032-1.976,2.327-1.976c1.303,0,2.335,0.88,2.335,1.976V51.555z"/>
<path fill="#6D6D6D" d="M107.319,25.764l-3.454,5.373c-3.007-2.495-6.973-4.35-11.896-4.35c-5.118,0-8.828,2.303-8.828,7.355
	c0,4.158,2.686,5.758,10.618,7.42c11.449,2.495,15.672,6.396,15.672,13.625c0,8.508-6.461,14.266-16.76,14.266
	c-6.973,0-12.793-2.176-17.207-6.014l3.646-5.438c3.326,3.326,8.636,5.438,13.753,5.438c5.885,0,10.042-2.686,10.042-7.74
	c0-4.094-3.069-6.141-11.002-7.804c-11.45-2.494-15.288-6.461-15.288-13.497c0-8.252,6.141-13.625,15.416-13.625
	C98.364,20.773,103.609,22.82,107.319,25.764z"/>
<path fill="#6D6D6D" d="M135.78,68.621h-6.524V21.605h6.524V68.621z"/>
<path fill="#6D6D6D" d="M165.585,62.801h22.39v5.82h-28.914V21.605h6.524V62.801z"/>
<path fill="#6D6D6D" d="M216.116,69.389h-0.256l-22.132-47.783h7.101l15.161,33.391l15.16-33.391h7.035L216.116,69.389z"/>
<path fill="#6D6D6D" d="M285.963,27.618h-22.582v14.265h19.83v5.82h-19.83v14.905h23.092v6.013h-29.615V21.605h29.105V27.618z"/>
<path fill="#6D6D6D" d="M338.604,36.189c0,6.845-3.84,11.451-9.531,13.498l11.77,18.934h-7.676l-11.002-17.847h-9.213v17.847h-6.523
	V21.605h15.607C331.375,21.605,338.604,26.787,338.604,36.189z M312.952,27.361v17.656h8.508c6.398,0,10.555-3.007,10.555-8.828
	c0-5.758-4.223-8.828-10.555-8.828H312.952z"/>
<path fill="#6D6D6D" d="M368.368,68.621h-4.799V21.605h4.799V68.621z"/>
<path fill="#6D6D6D" d="M423.567,36.125c0,9.404-6.779,14.521-16.246,14.521h-10.234v17.975h-4.799V21.605h15.033
	C416.723,21.605,423.567,26.723,423.567,36.125z M397.086,25.955v20.342h9.85c7.1,0,11.707-3.519,11.707-10.172
	c0-6.588-4.67-10.17-11.707-10.17H397.086z"/>
</svg>
