<?xml version="1.0" encoding="utf-8"?>
<!-- Generator: Adobe Illustrator 15.0.2, SVG Export Plug-In  -->
<!DOCTYPE svg PUBLIC "-//W3C//DTD SVG 1.1//EN" "http://www.w3.org/Graphics/SVG/1.1/DTD/svg11.dtd" [
	<!ENTITY ns_flows "http://ns.adobe.com/Flows/1.0/">
]>
<svg version="1.1"
	 xmlns="http://www.w3.org/2000/svg" xmlns:xlink="http://www.w3.org/1999/xlink" xmlns:a="http://ns.adobe.com/AdobeSVGViewerExtensions/3.0/"
	 x="0px" y="0px" width="424px" height="90px" viewBox="0 0 424 90" overflow="visible" enable-background="new 0 0 424 90"
	 xml:space="preserve">
<defs>
</defs>
<path fill="#FFFFFF" d="M4.893,43.611c0,1.088-1.148,1.972-2.443,1.972S0,44.699,0,43.611V22.54c0-1.091,1.154-1.971,2.449-1.971
	s2.443,0.88,2.443,1.971V43.611z"/>
<path fill="#FFFFFF" d="M41.691,70.021c0,1.086-1.031,1.971-2.326,1.971s-2.332-0.885-2.332-1.971V48.953
	c0-1.092,1.037-1.975,2.332-1.975s2.326,0.883,2.326,1.975V70.021z"/>
<path fill="#FFFFFF" d="M29.35,25.378c0,1.086-1.033,1.971-2.326,1.971c-1.301,0-2.336-0.884-2.336-1.971V1.975
	C24.688,0.884,25.723,0,27.023,0c1.293,0,2.326,0.884,2.326,1.975V25.378z"/>
<path fill="#FFFFFF" d="M29.35,79.837c0,1.088-1.033,1.971-2.326,1.971c-1.301,0-2.336-0.883-2.336-1.971V39.137
	c0-1.087,1.035-1.975,2.336-1.975c1.293,0,2.326,0.888,2.326,1.975V79.837z"/>
<path fill="#FFFFFF" d="M17.008,88.25c0,1.092-1.033,1.977-2.336,1.977c-1.295,0-2.326-0.885-2.326-1.977V69.525
	c0-1.092,1.031-1.971,2.326-1.971c1.303,0,2.336,0.879,2.336,1.971V88.25z"/>
<path fill="#FFFFFF" d="M17.008,51.554c0,1.092-1.033,1.975-2.336,1.975c-1.295,0-2.326-0.883-2.326-1.975V13.429
	c0-1.096,1.031-1.975,2.326-1.975c1.303,0,2.336,0.879,2.336,1.975V51.554z"/>
<path fill="#FFFFFF" d="M107.318,25.763l-3.453,5.373c-3.008-2.495-6.973-4.35-11.896-4.35c-5.119,0-8.828,2.303-8.828,7.356
	c0,4.158,2.686,5.757,10.617,7.42c11.449,2.495,15.672,6.396,15.672,13.624c0,8.508-6.461,14.266-16.76,14.266
	c-6.973,0-12.793-2.176-17.207-6.014l3.646-5.438c3.326,3.326,8.637,5.438,13.754,5.438c5.885,0,10.041-2.686,10.041-7.74
	c0-4.094-3.068-6.141-11.002-7.805c-11.449-2.492-15.287-6.459-15.287-13.495c0-8.252,6.141-13.625,15.416-13.625
	C98.363,20.773,103.609,22.82,107.318,25.763z"/>
<path fill="#FFFFFF" d="M135.779,68.621h-6.523V21.605h6.523V68.621z"/>
<path fill="#FFFFFF" d="M165.584,62.8h22.391v5.82h-28.914V21.605h6.523V62.8z"/>
<path fill="#FFFFFF" d="M216.115,69.388h-0.256l-22.133-47.783h7.102l15.16,33.391l15.16-33.391h7.035L216.115,69.388z"/>
<path fill="#FFFFFF" d="M285.963,27.618h-22.582v14.264h19.83v5.82h-19.83v14.904h23.092v6.014h-29.615V21.605h29.105V27.618z"/>
<path fill="#FFFFFF" d="M338.604,36.19c0,6.845-3.84,11.45-9.531,13.497l11.77,18.934h-7.676l-11.002-17.848h-9.213v17.848h-6.523
	V21.605h15.607C331.375,21.605,338.604,26.787,338.604,36.19z M312.951,27.362v17.655h8.508c6.398,0,10.555-3.006,10.555-8.827
	c0-5.758-4.223-8.828-10.555-8.828H312.951z"/>
<path fill="#FFFFFF" d="M368.367,68.621h-4.799V21.605h4.799V68.621z"/>
<path fill="#FFFFFF" d="M423.566,36.125c0,9.403-6.779,14.521-16.246,14.521h-10.234v17.975h-4.799V21.605h15.033
	C416.723,21.605,423.566,26.722,423.566,36.125z M397.086,25.955v20.341h9.85c7.1,0,11.707-3.518,11.707-10.171
	c0-6.588-4.67-10.17-11.707-10.17H397.086z"/>
</svg>
